HIERARCHY
ROOT pelvis
{
  OFFSET 0 100 0
  CHANNELS 6 Xposition Yposition Zposition Zrotation Xrotation Yrotation
  JOINT pelvis_right_femur
  {
    OFFSET -10.78128 -3.44521 -0.5502486
    CHANNELS 3 Zrotation Xrotation Yrotation
    JOINT right_femur_tibia
    {
      OFFSET -0.8047443 -44.0398 -0.1307829
      CHANNELS 3 Zrotation Xrotation Yrotation
      JOINT right_tibia_foot
      {
        OFFSET 3.006224 -47.83518 -5
        CHANNELS 3 Zrotation Xrotation Yrotation
        End Site
        {
          OFFSET 0 -5 15
        }
      }
    }
  }
  JOINT pelvis_left_femur
  {
    OFFSET 10.78128 -3.44521 -0.5502486
    CHANNELS 3 Zrotation Xrotation Yrotation
    JOINT left_femur_tibia
    {
      OFFSET 0.8047443 -44.0398 -0.1307829
      CHANNELS 3 Zrotation Xrotation Yrotation
      JOINT left_tibia_foot
      {
        OFFSET -4.370144 -48.10324 -4.275266
        CHANNELS 3 Zrotation Xrotation Yrotation
        End Site
        {
          OFFSET 0 -5 15
        }
      }
    }
  }
  JOINT pelvis_spine1
  {
    OFFSET 0 6.468898 -3.129235
    CHANNELS 3 Zrotation Xrotation Yrotation
    JOINT spine1
    {
      OFFSET 0 23.15396 4.99043
      CHANNELS 3 Zrotation Xrotation Yrotation
      JOINT spine2
      {
        OFFSET 0 20.79997 -5.064912
        CHANNELS 3 Zrotation Xrotation Yrotation
        JOINT neck
        {
          OFFSET 0 14.38658 9.616178
          CHANNELS 3 Zrotation Xrotation Yrotation
          End Site
          {
            OFFSET 0 20 0
          }
        }
      }
      JOINT right_manubrium
      {
        OFFSET -5.722621 16.35077 3.967754
        CHANNELS 3 Zrotation Xrotation Yrotation
        JOINT right_clavicle
        {
          OFFSET -13.16364 1.694482 -4.693211
          CHANNELS 3 Zrotation Xrotation Yrotation
          JOINT right_humerus
          {
            OFFSET -28.5034 -0.3100689 -2.792744
            CHANNELS 3 Zrotation Xrotation Yrotation
            JOINT right_radius
            {
              OFFSET -25.15693 0.02248979 -1.271978
              CHANNELS 3 Zrotation Xrotation Yrotation
              End Site
              {
                OFFSET -15 0 0
              }
            }
          }
        }
      }
      JOINT left_manubrium
      {
        OFFSET 5.722621 16.35077 3.967754
        CHANNELS 3 Zrotation Xrotation Yrotation
        JOINT left_clavicle
        {
          OFFSET 13.16364 1.694482 -4.693211
          CHANNELS 3 Zrotation Xrotation Yrotation
          JOINT left_humerus
          {
            OFFSET 29.39168 -1.063119 -2.237045
            CHANNELS 3 Zrotation Xrotation Yrotation
            JOINT left_radius
            {
              OFFSET 24.59957 -0.9528479 0.9047498
              CHANNELS 3 Zrotation Xrotation Yrotation
              End Site
              {
                OFFSET 15 -0 -0
              }
            }
          }
        }
      }
    }
  }
}
MOTION
Frames: 13
Frame Time: 0.0416666666667
49.83967 97.71851 254.0881 4.099205 -7.907782 9.713398 -0.5830125 17.80401 6.828785 -0 22.10992 -0 6.388666 -11.16359 -1.143011 -2.504115 -18.48072 -5.98197 -0 30.11273 -0 -6.8271 -7.374635 18.63424 -1.862088 -0.9795539 9.311853 -1.424927 10.23014 -2.634798 2.715386 22.24336 5.021896 1.620552 -14.45714 7.658728 1.871087 -19.99823 10.98795 82.05281 22.37877 -8.113123 -0 0 23.48546 -25.42858 14.13376 12.73993 4.347106 -14.81425 -3.549287 -92.26963 22.9003 22.98198 0 0 -11.29403 -2.756294 6.403829 16.59982
52.06535 97.70452 260.331 4.264749 -7.96045 10.44033 -0.912475 16.75583 6.472722 -0 25.53848 -0 6.535077 -10.73782 -1.532543 -3.067983 -16.99207 -6.535097 -0 28.1204 -0 -6.698743 -8.070334 18.27976 -2.045167 -0.9485606 8.967266 -1.499967 9.931798 -2.683294 2.784874 22.39938 4.998541 1.462962 -14.32542 7.859086 1.789062 -19.70121 10.73811 82.35626 22.27503 -8.150691 -0 0 23.19409 -25.2495 14.00035 12.60911 4.272043 -14.57634 -3.56856 -91.85867 23.20985 22.4628 0 0 -11.06557 -2.725022 6.526206 16.61381
54.3581 97.79073 266.5224 4.428394 -8.011058 11.35606 -1.129093 14.82645 6.017623 -0 28.56332 -0 6.508528 -10.29401 -2.068343 -3.637368 -14.73646 -7.085445 -0 26.29837 -0 -6.56543 -8.87294 17.84255 -2.223828 -0.8729845 8.465691 -1.507163 9.650442 -2.851863 2.837503 22.59054 4.989095 1.299583 -14.1736 8.065561 1.734665 -19.23672 10.48588 82.86806 22.29291 -8.549607 -0 0 22.50691 -24.93474 13.90066 12.37116 4.237533 -14.54725 -3.630333 -91.15477 23.54897 21.40648 0 0 -11.238 -2.563513 6.723046 16.45271
56.68306 97.95056 272.6109 4.589686 -8.062486 12.44891 -1.234581 12.07354 5.485736 -0 31.03219 -0 6.298468 -9.890322 -2.730605 -4.168562 -11.8232 -7.596618 -0 24.6597 -0 -6.432572 -9.777803 17.34359 -2.391821 -0.7406637 7.823856 -1.449586 9.389352 -3.128127 2.874734 22.81722 4.990069 1.133506 -13.9991 8.272696 1.699424 -18.62411 10.23751 83.56739 22.41738 -9.278585 -0 0 21.46465 -24.49173 13.82873 12.03144 4.248911 -14.72825 -3.730156 -90.18308 23.89865 19.83563 0 0 -11.8086 -2.274437 6.993221 16.11325
59.00659 98.15173 278.5554 4.74874 -8.109332 13.69928 -1.247638 8.64952 4.909919 -0 32.83921 -0 5.909715 -9.561285 -3.488364 -4.632797 -8.4069 -8.046897 -0 23.2369 -0 -6.308732 -10.76101 16.80557 -2.543816 -0.5552399 7.073966 -1.334702 9.147315 -3.490419 2.901196 23.07256 4.994623 0.9698896 -13.80751 8.472788 1.674108 -17.89079 9.998024 84.41977 22.62327 -10.28332 -0 0 20.12846 -23.93432 13.77501 11.59997 4.306359 -15.0979 -3.857556 -88.99647 24.23313 17.82378 0 0 -12.733 -1.869422 7.330229 15.60671
61.30124 98.36166 284.3376 4.904224 -8.137976 15.07757 -1.192978 4.797027 4.329441 -0 33.89254 -0 5.357128 -9.326335 -4.300265 -5.011307 -4.687684 -8.425435 -0 22.09238 -0 -6.205926 -11.77951 16.25379 -2.675187 -0.3345857 6.263382 -1.173355 8.919057 -3.908038 2.925106 23.34303 4.991786 0.8166036 -13.61225 8.654921 1.647528 -17.07098 9.771843 85.37471 22.87884 -11.48743 -0 0 18.57717 -23.28073 13.72637 11.08953 4.406873 -15.61547 -3.995742 -87.67401 24.52681 15.49168 0 0 -13.93183 -1.367462 7.724496 14.95536
63.54993 98.55105 289.9689 5.051692 -8.130639 16.54313 -1.091363 0.8109449 3.783087 -0 34.11167 -0 4.661194 -9.195519 -5.119913 -5.292519 -0.8894922 -8.729281 -0 21.3079 -0 -6.137162 -12.77844 15.71448 -2.782537 -0.1053641 5.447805 -0.9781838 8.697081 -4.3453 2.956878 23.61127 4.968111 0.6831759 -13.4313 8.806277 1.607469 -16.20222 9.563073 86.37034 23.15196 -12.80123 -0 0 16.89854 -22.5515 13.6678 10.51447 4.54582 -16.22883 -4.124311 -86.30927 24.76191 12.98945 0 0 -15.30499 -0.792044 8.165237 14.18812
65.7474 98.69559 295.4873 5.183664 -8.073506 18.04684 -0.9541398 -3.031165 3.301597 -0 33.45821 -0 3.844831 -9.171163 -5.905856 -5.472244 2.782622 -8.961787 -0 20.95495 -0 -6.111696 -13.70488 15.21111 -2.864314 0.1062849 4.678118 -0.7615204 8.474962 -4.769293 3.005747 23.86126 4.91187 0.5779838 -13.28136 8.915746 1.54403 -15.32008 9.375294 87.34643 23.41727 -14.13864 -0 0 15.17485 -21.76775 13.58606 9.890317 4.71743 -16.88631 -4.224943 -84.98983 24.9329 10.46477 0 0 -16.7523 -0.1671564 8.641437 13.33589
67.89867 98.77702 300.9469 5.291838 -7.964056 19.53632 -0.783418 -6.516474 2.904653 -0 31.96907 -0 2.93193 -9.248637 -6.628095 -5.553503 6.168364 -9.130573 -0 21.07486 -0 -6.13139 -14.51639 14.76407 -2.920389 0.2826191 3.990918 -0.5342051 8.250434 -5.155163 3.076754 24.08288 4.81662 0.5059799 -13.1733 8.97671 1.452876 -14.45577 9.211613 88.25455 23.65977 -15.4277 -0 0 13.47424 -20.95075 13.47206 9.234617 4.913873 -17.54422 -4.286011 -83.78444 25.04552 8.041922 0 0 -18.18405 0.4844958 9.14198 12.42978
70.01611 98.78516 306.4037 5.370623 -7.81489 20.96121 -0.5748025 -9.488996 2.603565 -0 29.7764 -0 1.948177 -9.417869 -7.266356 -5.544776 9.138383 -9.244797 -0 21.68536 -0 -6.189386 -15.17721 14.39666 -2.950459 0.4173394 3.408722 -0.3062601 8.027422 -5.485152 3.169546 24.27388 4.682167 0.4683691 -13.11105 8.987113 1.336912 -13.6399 9.075502 89.05729 23.87369 -16.60546 -0 0 11.8551 -20.12385 13.32072 8.569504 5.122796 -18.16475 -4.30375 -82.74793 25.1133 5.828238 0 0 -19.51114 1.138739 9.655107 11.50468
72.11596 98.72143 311.9019 5.420735 -7.654934 22.27734 -0.3195949 -11.81256 2.405605 -0 27.11828 -0 0.9230587 -9.665031 -7.804085 -5.458119 11.5609 -9.312765 -0 22.80039 -0 -6.269915 -15.64815 14.1434 -2.952275 0.5154538 2.945367 -0.08848179 7.817265 -5.744427 3.278383 24.44021 4.513956 0.4634225 -13.09268 8.948046 1.206838 -12.90894 8.97187 89.72093 24.05988 -17.6046 -0 0 10.37696 -19.31551 13.12945 7.924983 5.324381 -18.70885 -4.281492 -81.93458 25.1554 3.935209 0 0 -20.62539 1.76487 10.16783 10.60538
74.21464 98.6029 317.4641 5.450689 -7.525721 23.44892 -0.007360392 -13.3512 2.315471 -0 24.31965 -0 -0.1101405 -9.974343 -8.22483 -5.307677 13.28842 -9.340339 -0 24.43911 -0 -6.350294 -15.88323 14.05127 -2.921212 0.5908245 2.610044 0.1071328 7.637632 -5.918776 3.393324 24.59446 4.321596 0.4874736 -13.11212 8.86246 1.079619 -12.30666 8.906974 90.21148 24.22358 -18.34878 -0 0 9.104556 -18.55919 12.89744 7.338481 5.491579 -19.13366 -4.228034 -81.4033 25.1947 2.486113 0 0 -21.39548 2.324544 10.66666 9.787283
76.3254 98.46316 323.0878 5.473726 -7.469438 24.44868 0.3686642 -13.99225 2.331918 -0 21.71712 -0 -1.118893 -10.33031 -8.514446 -5.107831 14.18822 -9.330604 -0 26.60906 -0 -6.407431 -15.84126 14.16642 -2.852276 0.6605649 2.407145 0.2693988 7.50722 -5.996817 3.503143 24.7512 4.116351 0.5358982 -13.16149 8.734628 0.9732966 -11.87504 8.886262 90.50005 24.37174 -18.76759 -0 0 8.097241 -17.88753 12.62615 6.847238 5.596867 -19.40042 -4.154639 -81.20558 25.25258 1.592618 0 0 -21.69621 2.779567 11.14008 9.105029
